# xmcd
#
# Track frame offsets:
#	183
#	16333
#	30208
#
# Disc length: 551 seconds
#
# Revision: 0
# Processed by: cddbd v1.5.2PL0 Copyright (c) Steve Scherf et al.
# Submitted via: SynApp - FreeCDDB Version: 2.5
#
DISCID=12022503
DTITLE=Mike Krüger - Es wächst wieder zusammen
DYEAR=1991
DGENRE=Comedy
TTITLE0=Mike Krüger - Es wächst wieder zusammen
TTITLE1=Mike Krüger - Du treibst Rückwärts
TTITLE2=Mike Krüger - Fettnapf
EXTD=
EXTT0=
EXTT1=
EXTT2=
PLAYORDER=
